<svg xmlns="http://www.w3.org/2000/svg" width="900" height="260" viewBox="0 0 900 260" font-family="Segoe UI, Helvetica, Arial, sans-serif" role="img" aria-label="Python Scripts: Automation, investigation support and utilities for security operations">
  <defs>
    <linearGradient id="bg" x1="0" y1="0" x2="1" y2="1">
      <stop offset="0" stop-color="#0b0f19"/>
      <stop offset="1" stop-color="#0f1a14"/>
    </linearGradient>
    <linearGradient id="bar" x1="0" y1="0" x2="1" y2="0">
      <stop offset="0" stop-color="#3fb950"/>
      <stop offset="1" stop-color="#ffd43b"/>
    </linearGradient>
  </defs>

  <rect width="900" height="260" rx="14" fill="url(#bg)"/>

  <g transform="translate(60,54)"><rect x="0" y="24" width="120" height="104" rx="10" stroke="#3fb950" stroke-width="5" stroke-linejoin="round" stroke-linecap="round" fill="none"/><line x1="0" y1="48" x2="120" y2="48" stroke="#3fb950" stroke-width="4"/><circle cx="14" cy="36" r="4" fill="#ffd43b"/><circle cx="28" cy="36" r="4" fill="#f5f5f7"/><circle cx="42" cy="36" r="4" fill="#6b7080"/><text x="16" y="98" fill="#f5f5f7" font-family="Consolas, ui-monospace, Menlo, monospace" font-size="30" font-weight="700">&gt;_</text></g>

  <text x="220" y="86" fill="#f5f5f7" font-size="34" font-weight="700">Python Scripts</text>
  <text x="221" y="118" fill="#a9adbb" font-size="17">Automation, investigation support and utilities for security operations</text>

  <g font-family="Consolas, ui-monospace, Menlo, monospace" font-size="13"><rect x="220" y="172" width="137" height="32" rx="16" fill="#3fb950" fill-opacity="0.14" stroke="#3fb950" stroke-opacity="0.55"/><text x="288.5" y="193" fill="#ffd43b" text-anchor="middle">portscanner.py</text><rect x="369" y="172" width="184" height="32" rx="16" fill="#3fb950" fill-opacity="0.14" stroke="#3fb950" stroke-opacity="0.55"/><text x="461" y="193" fill="#ffd43b" text-anchor="middle">passwordgenerator.py</text><rect x="565" y="172" width="129" height="32" rx="16" fill="#3fb950" fill-opacity="0.14" stroke="#3fb950" stroke-opacity="0.55"/><text x="629.5" y="193" fill="#ffd43b" text-anchor="middle">ipautoscan.py</text></g>
</svg>
